HIERARCHY
ROOT Hips
{
    OFFSET   0.000000   0.000000   0.000000
    CHANNELS 6 Xposition Yposition Zposition Zrotation Xrotation Yrotation
    JOINT Chest
    {
        OFFSET   0.000000   8.007230   0.000000
        CHANNELS 3 Zrotation Xrotation Yrotation
        JOINT Chest2
        {
            OFFSET   0.000000  22.077100   0.000000
            CHANNELS 3 Zrotation Xrotation Yrotation
            JOINT Neck
            {
                OFFSET   0.000000  23.254800  -0.000021
                CHANNELS 3 Zrotation Xrotation Yrotation
                JOINT Head
                {
                    OFFSET   0.000000  14.370000   1.956610
                    CHANNELS 3 Zrotation Xrotation Yrotation
                    End Site
                    {
                        OFFSET   0.000000  19.566000   0.000000
                    }
                }
            }
            JOINT LeftCollar
            {
                OFFSET   3.911900  19.017000  -0.467063
                CHANNELS 3 Zrotation Xrotation Yrotation
                JOINT LeftShoulder
                {
                    OFFSET  10.383700   0.000000   0.000000
                    CHANNELS 3 Zrotation Xrotation Yrotation
                    JOINT LeftElbow
                    {
                        OFFSET  26.662100   0.001529   0.000325
                        CHANNELS 3 Zrotation Xrotation Yrotation
                        JOINT LeftWrist
                        {
                            OFFSET  28.869000  -0.000011  -0.000096
                            CHANNELS 3 Zrotation Xrotation Yrotation
                            JOINT LeftFinger0
                            {
                                OFFSET   2.044650  -2.323460   3.252850
                                CHANNELS 3 Zrotation Xrotation Yrotation
                                JOINT LeftFinger01
                                {
                                    OFFSET   3.088130   0.000000   0.000000
                                    CHANNELS 3 Zrotation Xrotation Yrotation
                                    JOINT LeftFinger02
                                    {
                                        OFFSET   2.639460   0.000000   0.000000
                                        CHANNELS 3 Zrotation Xrotation Yrotation
                                        End Site
                                        {
                                            OFFSET   2.582190   0.000000   0.000000
                                        }
                                    }
                                }
                            }
                            JOINT LeftFinger1
                            {
                                OFFSET   8.364480   0.000000   3.252850
                                CHANNELS 3 Zrotation Xrotation Yrotation
                                JOINT LeftFinger11
                                {
                                    OFFSET   4.646930   0.000000   0.000000
                                    CHANNELS 3 Zrotation Xrotation Yrotation
                                    JOINT LeftFinger12
                                    {
                                        OFFSET   2.323460   0.000000   0.000000
                                        CHANNELS 3 Zrotation Xrotation Yrotation
                                        End Site
                                        {
                                            OFFSET   2.273050   0.000000   0.000000
                                        }
                                    }
                                }
                            }
                            JOINT LeftFinger2
                            {
                                OFFSET   8.364480   0.000016   1.078090
                                CHANNELS 3 Zrotation Xrotation Yrotation
                                JOINT LeftFinger21
                                {
                                    OFFSET   5.111620   0.000000   0.000000
                                    CHANNELS 3 Zrotation Xrotation Yrotation
                                    JOINT LeftFinger22
                                    {
                                        OFFSET   2.788160   0.000017   0.000000
                                        CHANNELS 3 Zrotation Xrotation Yrotation
                                        End Site
                                        {
                                            OFFSET   2.727660   0.000000   0.000000
                                        }
                                    }
                                }
                            }
                            JOINT LeftFinger3
                            {
                                OFFSET   7.899780   0.000015  -1.078090
                                CHANNELS 3 Zrotation Xrotation Yrotation
                                JOINT LeftFinger31
                                {
                                    OFFSET   4.646920   0.000000   0.000000
                                    CHANNELS 3 Zrotation Xrotation Yrotation
                                    JOINT LeftFinger32
                                    {
                                        OFFSET   2.323470   0.000000   0.000000
                                        CHANNELS 3 Zrotation Xrotation Yrotation
                                        End Site
                                        {
                                            OFFSET   2.273050   0.000000   0.000000
                                        }
                                    }
                                }
                            }
                            JOINT LeftFinger4
                            {
                                OFFSET   7.435090   0.000000  -3.252850
                                CHANNELS 3 Zrotation Xrotation Yrotation
                                JOINT LeftFinger41
                                {
                                    OFFSET   3.717550   0.000000   0.000000
                                    CHANNELS 3 Zrotation Xrotation Yrotation
                                    JOINT LeftFinger42
                                    {
                                        OFFSET   1.858760   0.000000   0.000000
                                        CHANNELS 3 Zrotation Xrotation Yrotation
                                        End Site
                                        {
                                            OFFSET   1.818440   0.000000   0.000000
                                        }
                                    }
                                }
                            }
                        }
                    }
                }
            }
            JOINT RightCollar
            {
                OFFSET  -3.911900  19.017000  -0.467062
                CHANNELS 3 Zrotation Xrotation Yrotation
                JOINT RightShoulder
                {
                    OFFSET -10.383700   0.000015   0.000000
                    CHANNELS 3 Zrotation Xrotation Yrotation
                    JOINT RightElbow
                    {
                        OFFSET -26.662100   0.001341   0.000385
                        CHANNELS 3 Zrotation Xrotation Yrotation
                        JOINT RightWrist
                        {
                            OFFSET -28.869000   0.000025  -0.000080
                            CHANNELS 3 Zrotation Xrotation Yrotation
                            JOINT RightFinger0
                            {
                                OFFSET  -2.044650  -2.323490   3.252850
                                CHANNELS 3 Zrotation Xrotation Yrotation
                                JOINT RightFinger01
                                {
                                    OFFSET  -3.088130   0.000000   0.000000
                                    CHANNELS 3 Zrotation Xrotation Yrotation
                                    JOINT RightFinger02
                                    {
                                        OFFSET  -2.639460   0.000000   0.000000
                                        CHANNELS 3 Zrotation Xrotation Yrotation
                                        End Site
                                        {
                                            OFFSET  -2.582190   0.000000   0.000000
                                        }
                                    }
                                }
                            }
                            JOINT RightFinger1
                            {
                                OFFSET  -8.364480   0.000000   3.252850
                                CHANNELS 3 Zrotation Xrotation Yrotation
                                JOINT RightFinger11
                                {
                                    OFFSET  -4.646930   0.000000   0.000000
                                    CHANNELS 3 Zrotation Xrotation Yrotation
                                    JOINT RightFinger12
                                    {
                                        OFFSET  -2.323470   0.000000   0.000000
                                        CHANNELS 3 Zrotation Xrotation Yrotation
                                        End Site
                                        {
                                            OFFSET  -2.273050   0.000000   0.000000
                                        }
                                    }
                                }
                            }
                            JOINT RightFinger2
                            {
                                OFFSET  -8.364480   0.000000   1.078090
                                CHANNELS 3 Zrotation Xrotation Yrotation
                                JOINT RightFinger21
                                {
                                    OFFSET  -5.111610   0.000000   0.000000
                                    CHANNELS 3 Zrotation Xrotation Yrotation
                                    JOINT RightFinger22
                                    {
                                        OFFSET  -2.788160   0.000000   0.000000
                                        CHANNELS 3 Zrotation Xrotation Yrotation
                                        End Site
                                        {
                                            OFFSET  -2.727660   0.000000   0.000000
                                        }
                                    }
                                }
                            }
                            JOINT RightFinger3
                            {
                                OFFSET  -7.899780   0.000000  -1.078090
                                CHANNELS 3 Zrotation Xrotation Yrotation
                                JOINT RightFinger31
                                {
                                    OFFSET  -4.646920   0.000000   0.000000
                                    CHANNELS 3 Zrotation Xrotation Yrotation
                                    JOINT RightFinger32
                                    {
                                        OFFSET  -2.323470   0.000000   0.000000
                                        CHANNELS 3 Zrotation Xrotation Yrotation
                                        End Site
                                        {
                                            OFFSET  -2.273050   0.000000   0.000000
                                        }
                                    }
                                }
                            }
                            JOINT RightFinger4
                            {
                                OFFSET  -7.435090   0.000000  -3.252850
                                CHANNELS 3 Zrotation Xrotation Yrotation
                                JOINT RightFinger41
                                {
                                    OFFSET  -3.717550   0.000000   0.000000
                                    CHANNELS 3 Zrotation Xrotation Yrotation
                                    JOINT RightFinger42
                                    {
                                        OFFSET  -1.858770   0.000000   0.000000
                                        CHANNELS 3 Zrotation Xrotation Yrotation
                                        End Site
                                        {
                                            OFFSET  -1.818440   0.000000   0.000000
                                        }
                                    }
                                }
                            }
                        }
                    }
                }
            }
        }
    }
    JOINT LeftHip
    {
        OFFSET   9.783010   0.000000   0.000000
        CHANNELS 3 Zrotation Xrotation Yrotation
        JOINT LeftKnee
        {
            OFFSET   0.000070 -41.789100   0.000028
            CHANNELS 3 Zrotation Xrotation Yrotation
            JOINT LeftAnkle
            {
                OFFSET   0.000087 -41.133200  -0.000100
                CHANNELS 3 Zrotation Xrotation Yrotation
                JOINT LeftToe
                {
                    OFFSET   0.000000  -6.358960  14.674500
                    CHANNELS 3 Zrotation Xrotation Yrotation
                    End Site
                    {
                        OFFSET   0.000000   0.000000   3.913200
                    }
                }
            }
        }
    }
    JOINT RightHip
    {
        OFFSET  -9.783020   0.000000   0.000000
        CHANNELS 3 Zrotation Xrotation Yrotation
        JOINT RightKnee
        {
            OFFSET   0.000044 -41.789100  -0.000870
            CHANNELS 3 Zrotation Xrotation Yrotation
            JOINT RightAnkle
            {
                OFFSET  -0.000090 -41.133200  -0.000245
                CHANNELS 3 Zrotation Xrotation Yrotation
                JOINT RightToe
                {
                    OFFSET   0.000000  -6.358960  14.674500
                    CHANNELS 3 Zrotation Xrotation Yrotation
                    End Site
                    {
                        OFFSET   0.000000   0.000000   3.913200
                    }
                }
            }
        }
    }
}
MOTION
Frames: 4
Frame Time:   0.016667
  1.449320  90.130600   0.762715  -1.476530  -5.233800  -3.951100  -1.048070   4.278800  -0.072248  -2.099540   8.558120  -0.066024   2.533130   1.772420  -0.079189   4.161950   3.644130 -18.141100  -5.164000  -0.987527   4.177330 -68.508800  22.062200  -3.372440  -3.887920  -9.181290 -14.154000  14.245800   2.641740   7.616810  37.320700  26.129400 -65.220700 -25.752900   0.007311   0.005284  -7.876450  -0.004462   0.003682 -29.801900   8.170310 -13.940000 -25.202600   0.022043  -0.002190 -17.641800   0.017732  -0.000554 -28.652100   1.744530  -3.189060 -39.055500  -0.020053  -0.003769 -26.011000  -0.005197  -0.002292 -27.751500   1.694360  -3.215980 -30.794600   0.000397  -0.000807 -20.509300   0.007744  -0.002665 -28.826300   0.484116  -0.880357 -43.245500   0.009121  -0.003506 -28.801500  -0.000286  -0.001471  12.411500   2.486390   5.992410  67.786200  15.867800   4.885080   1.664660  -6.792570  14.717900 -15.984400 -18.325000   2.017450 -38.835400  33.374100  69.697600  29.763300   0.005361  -0.002985   9.881640  -0.005115   0.002832  27.082600   1.085970   2.122580  22.175100  -0.004896  -0.001922  15.522600  -0.004026   0.000569  26.820400  -1.015280  -2.007210  26.838400  -0.001960  -0.015197  17.874400  -0.003247  -0.007065  27.800400  -2.085520  -3.948470  31.206800   0.001492  -0.008562  20.783600  -0.006477  -0.006544  34.800300  -2.885290  -4.142270  52.357300   0.000658  -0.001042  34.870000   0.000653  -0.000598   0.493656   6.289040   2.308320   0.426008   1.179830  11.747500  -5.238780  -4.018170   6.460930   0.000000   0.000000   0.000000   2.773050   4.740450  -3.654300  -1.793450   3.418340  -7.725850  -9.830680   0.867477   2.888590  -0.000000   0.000000   0.000000
  1.514120  90.129000   0.765657  -1.503960  -5.183130  -4.144700  -0.978945   4.279240  -0.054838  -1.962020   8.558770  -0.036273   2.569530   1.869560  -0.083876   4.213370   3.784330 -11.801000  -5.152680  -1.125860   4.370780 -68.642900  22.111500  -3.334890  -3.899270  -9.058020 -14.164200  14.222900   2.609500   7.612030  37.343000  26.119800 -65.189800 -25.724300   0.002668   0.002567  -7.862170  -0.004352   0.003370 -29.784800   8.185400 -13.969200 -25.191300   0.023244  -0.002362 -17.633800   0.015814  -0.000600 -28.650500   1.758740  -3.215050 -39.065700  -0.021819  -0.003925 -26.017700  -0.005685  -0.002390 -27.754300   1.708170  -3.242180 -30.798500   0.000404  -0.000895 -20.511800   0.007748  -0.002645 -28.826300   0.500575  -0.909466 -43.245500   0.009325  -0.003618 -28.801500  -0.001796  -0.001632  12.413200   2.503250   6.054210  67.630200  15.709400   4.882630   1.613870  -6.712600  14.964300 -16.158200 -18.498500   2.036770 -38.817300  33.433000  69.724500  29.851300   0.005305  -0.002952   9.925630  -0.005104   0.002866  27.123900   1.042610   2.034410  22.207600  -0.004804  -0.001721  15.545300  -0.003975   0.000613  26.868400  -1.064470  -2.099920  26.888100  -0.001937  -0.012055  17.907500  -0.003326  -0.005807  27.812300  -2.137220  -4.043890  31.299000   0.001442  -0.004237  20.845100  -0.006399  -0.006399  34.863900  -2.940800  -4.211620  52.458300   0.000636  -0.001049  34.937200   0.000640  -0.000575   0.485442   6.250500   2.302130   0.425222   1.181650  11.893800  -5.203870  -4.041600   6.519360  -0.000000   0.000000  -0.000000   2.778880   4.715800  -3.675130  -1.820330   3.342460  -7.635480  -9.807490   0.908683   3.033320   0.000000   0.000000   0.000000
  1.567610  90.129800   0.758371  -1.524600  -5.116910  -4.307190  -0.925098   4.276830  -0.035584  -1.855320   8.553750  -0.001715   2.615150   2.002930  -0.091217   4.299530   4.025940  -5.211210  -5.139400  -1.257990   4.510100 -68.723800  22.132900  -3.273790  -3.942240  -8.930120 -14.228100  14.229000   2.519350   7.598030  37.352800  26.158500 -65.224000 -25.727900  -0.004443  -0.002105  -7.863980  -0.004230   0.003078 -29.802800   8.191590 -13.968300 -25.207100   0.018711  -0.002525 -17.644900   0.012281  -0.000640 -28.650600   1.758050  -3.213640 -39.113300  -0.019968  -0.004075 -26.049400  -0.006148  -0.002493 -27.762300   1.707560  -3.240640 -30.839600   0.000388  -0.000989 -20.539200   0.006203  -0.002619 -28.853300   0.502549  -0.911311 -43.285600   0.002429  -0.003736 -28.828300  -0.003215  -0.001794  12.436300   2.484860   6.121630  67.490400  15.628700   4.855030   1.593470  -6.713860  15.159600 -16.263600 -18.587900   2.057150 -38.789000  33.492500  69.767200  29.948700   0.005245  -0.002943   9.974330  -0.005109   0.002874  27.171800   0.993274   1.934410  22.245000  -0.004722  -0.001341  15.571600  -0.003883   0.000704  26.915300  -1.117440  -2.199920  26.937300  -0.001919  -0.007828  17.940300  -0.003402  -0.005402  27.823200  -2.188450  -4.138480  31.388100   0.001393  -0.000425  20.904500  -0.006322  -0.006257  34.925400  -3.003820  -4.291720  52.558800   0.000612  -0.001059  35.004100   0.000625  -0.000554   0.487793   6.196860   2.305980   0.413552   1.176990  12.026700  -5.166610  -4.057790   6.549990  -0.000000   0.000000  -0.000000   2.777920   4.683100  -3.669160  -1.834470   3.254050  -7.588220  -9.789250   0.957045   3.165900   0.000000   0.000000   0.000000
  1.604890  90.131700   0.744482  -1.542370  -5.043940  -4.442870  -0.880859   4.271330  -0.014305  -1.768050   8.542380   0.037600   2.687100   2.164660  -0.101399   4.430050   4.367200   1.457580  -5.126320  -1.379660   4.621310 -68.782500  22.145300  -3.212700  -3.991020  -8.801660 -14.310800  14.231900   2.451540   7.586770  37.362700  26.197200 -65.258300 -25.738600  -0.011664  -0.005563  -7.869300  -0.004104   0.002797 -29.823100   8.192800 -13.960400 -25.222800   0.013232  -0.002676 -17.656000   0.009035  -0.000678 -28.651200   1.753180  -3.204290 -39.151200  -0.016226  -0.004223 -26.074700  -0.006592  -0.002599 -27.768300   1.703320  -3.231070 -30.877500   0.000371  -0.001085 -20.564400   0.004004  -0.002594 -28.879800   0.502831  -0.911574 -43.325700  -0.006947  -0.003860 -28.854900  -0.003963  -0.001958  12.467000   2.454390   6.164300  67.370100  15.604200   4.828780   1.576540  -6.720950  15.270600 -16.303100 -18.614000   2.068370 -38.764400  33.551400  69.810200  30.040000   0.005182  -0.002935  10.020000  -0.005113   0.002884  27.211000   0.946540   1.840210  22.276000  -0.004641  -0.000978  15.593200  -0.003796   0.000798  26.949000  -1.166310  -2.292670  26.972300  -0.001901  -0.004948  17.963600  -0.003474  -0.005198  27.831100  -2.234710  -4.224160  31.454200   0.001345   0.001809  20.948500  -0.006246  -0.006119  34.972100  -3.063490  -4.369070  52.633400   0.000590  -0.001070  35.053800   0.000611  -0.000535   0.492759   6.156070   2.315580   0.394922   1.149830  12.139500  -5.130080  -4.064910   6.567150   0.000000   0.000000  -0.000000   2.775020   4.647840  -3.658390  -1.845590   3.159350  -7.561540  -9.773630   1.008610   3.283610  -0.000000   0.000000   0.000000
